:SAMPLES-PER-SECOND 24
:FULLY-SPECIFIED
:DEGREES
629
root  -0.349993 38.5283 29.4578 178.409 -51.9847 175.58
RightUpLeg  -11.633 -12.1877 -19.0965
RightLeg  24.1685 11.4253 5.35267
RightFoot  0.627263 -1.63436 15.5441
RightToes  -1.74623e-010 0 -2.59999e-017
Spine  4.2125 -2.03621 -6.73213
Spine1  11.3464 -3.5548 2.15718
HEad  -16.3368 -29.0804 11.8148
LeftShoulder1  1.55001 -3.10645 -16.7508
LeftArm  14.5926 10.3398 -44.7816
LeftForeArm  123.983 -78.1753 -122.497
LeftHand  0.0352616 6.99266 4.84733
RightShoulder  2.19956 4.15734 22.5098
RightArm  -4.9643 -13.0023 32.0638
RightForeArm  76.4666 79.2086 91.6636
RightHand  -0.0947227 -6.60839 5.02698
LeftUpLeg  9.19859 28.4811 13.9612
LeftLeg  24.8714 3.10103 1.92438
LeftFoot  -13.2557 -0.177011 -15.2495
LeftToes  -6.27559e-011 -2.10356e-011 8.24929e-012
630
root  -0.15244 37.3464 29.4307 178.734 -51.1977 176.087
RightUpLeg  -16.7488 -14.5745 -18.3423
RightLeg  32.684 11.14 7.39006
RightFoot  -7.28479 -0.511399 13.2266
RightToes  -1.74623e-010 0 -2.59999e-017
Spine  3.94176 -2.16104 -8.21776
Spine1  12.8741 -4.33089 3.46988
HEad  -19.2397 -26.9438 11.0512
LeftShoulder1  1.66503 -3.03533 -18.9311
LeftArm  12.013 3.72884 -40.6756
LeftForeArm  108.35 -79.9377 -102.497
LeftHand  0.0429354 7.54177 4.15879
RightShoulder  2.45117 4.49997 24.533
RightArm  -8.38285 -4.13685 29.6995
RightForeArm  62.7626 78.8609 68.9802
RightHand  -0.0600448 -6.19137 2.64476
LeftUpLeg  6.6268 30.1746 15.1582
LeftLeg  30.8336 1.61055 1.40492
LeftFoot  -20.984 -1.30121 -16.883
LeftToes  -6.27559e-011 -2.10356e-011 8.24929e-012
631
root  0.104821 36.6056 29.0992 177.745 -55.5033 177.765
RightUpLeg  -20.5111 -16.3832 -17.6144
RightLeg  42.1609 8.79706 8.15345
RightFoot  -8.23076 -0.411243 12.8899
RightToes  -1.74623e-010 0 -2.59999e-017
Spine  5.48012 -3.38875 -10.6066
Spine1  12.584 -6.65471 6.01619
HEad  -20.0155 -25.8743 11.1149
LeftShoulder1  1.67037 -2.87524 -19.7038
LeftArm  9.3673 1.97428 -39.033
LeftForeArm  94.4065 -80.399 -82.1065
LeftHand  0.121492 7.55242 8.28505
RightShoulder  2.69384 4.7831 26.5071
RightArm  -14.8221 -5.12859 31.2925
RightForeArm  57.8904 77.9535 55.302
RightHand  0.0310906 -6.78518 -4.78063
LeftUpLeg  1.30927 26.6072 16.394
LeftLeg  37.9979 -1.34096 -0.742107
LeftFoot  -23.5565 -1.61007 -16.302
LeftToes  -6.27559e-011 -2.10356e-011 8.24929e-012
632
root  0.245814 36.3118 28.1381 177.442 -66.8779 179.035
RightUpLeg  -19.5584 -18.3847 -17.8612
RightLeg  48.4797 4.41974 4.99821
RightFoot  -9.66795 -0.300281 15.8955
RightToes  -1.74623e-010 0 -2.59999e-017
Spine  7.10373 -5.20483 -15.828
Spine1  10.28 -10.1355 10.9522
HEad  -17.0761 -28.1253 11.0833
LeftShoulder1  1.56682 -2.66888 -18.8392
LeftArm  9.3278 5.41499 -39.327
LeftForeArm  95.5611 -80.3046 -87.111
LeftHand  0.238732 7.36968 15.2819
RightShoulder  2.97231 5.06014 28.775
RightArm  -23.3117 -18.739 29.8341
RightForeArm  71.3393 79.3226 74.2501
RightHand  0.157099 -8.13501 -8.02626
LeftUpLeg  -6.8386 21.4576 17.5209
LeftLeg  44.991 -4.05993 -3.91733
LeftFoot  -21.4533 -1.18438 -14.8456
LeftToes  -6.27559e-011 -2.10356e-011 8.24929e-012
633
root  0.272898 36.1638 26.7934 177.084 -82.2996 -179.113
RightUpLeg  -16.5353 -20.1788 -17.7518
RightLeg  53.2365 0.555948 0.41868
RightFoot  -12.4158 0.126731 22.3238
RightToes  -1.74623e-010 0 -2.59999e-017
Spine  8.00587 -6.78929 -21.5384
Spine1  8.5588 -13.0407 15.5808
HEad  -12.2543 -31.3695 10.097
LeftShoulder1  1.51337 -2.53575 -18.4897
LeftArm  9.92581 8.89536 -35.7931
LeftForeArm  114.962 -79.0244 -114.047
LeftHand  0.205947 6.97731 16.1669
RightShoulder  3.29145 5.35893 31.2532
RightArm  -29.3465 -33.6072 21.7798
RightForeArm  71.0365 79.2191 85.2262
RightHand  0.0482867 -7.79785 -4.11526
LeftUpLeg  -16.9917 20.2326 17.4902
LeftLeg  49.4854 -4.83051 -5.5656
LeftFoot  -13.8567 -0.184823 -12.1507
LeftToes  -6.27559e-011 -2.10356e-011 8.24929e-012
634
root  0.275865 35.6968 25.5332 9.17603 -81.4133 -10.6415
RightUpLeg  -14.4071 -20.4407 -16.7754
RightLeg  60.7239 0.336863 0.227357
RightFoot  -12.227 0.110148 24.0889
RightToes  -1.74623e-010 0 -2.59999e-017
Spine  10.5207 -7.64253 -22.5058
Spine1  7.35562 -14.2509 15.5392
HEad  -7.51854 -28.8887 7.73878
LeftShoulder1  1.50393 -2.54792 -18.2674
LeftArm  6.77055 12.091 -28.8179
LeftForeArm  128.39 -77.0306 -129.31
LeftHand  0.160373 6.69424 15.8515
RightShoulder  3.09344 5.05284 30.2292
RightArm  -30.6859 -41.5144 13.4481
RightForeArm  43.7973 77.4692 59.8729
RightHand  -0.0223663 -5.59075 -5.86265
LeftUpLeg  -25.6358 17.6029 16.2125
LeftLeg  50.5714 -4.80696 -5.76532
LeftFoot  -10.3926 0.140942 -8.76302
LeftToes  -6.27559e-011 -2.10356e-011 8.24929e-012
635
root  0.295345 35.109 24.2494 3.96167 -66.9703 -4.81787
RightUpLeg  -14.7957 -16.9657 -14.8521
RightLeg  68.5228 1.97237 4.93327
RightFoot  -10.2453 -0.22033 17.6633
RightToes  -1.74623e-010 0 -2.59999e-017
Spine  12.6166 -7.34552 -20.6533
Spine1  6.7683 -13.5598 12.5453
HEad  -4.15677 -16.6293 3.09705
LeftShoulder1  1.50633 -2.6182 -18.0047
LeftArm  1.01529 18.3921 -22.6297
LeftForeArm  122.864 -77.6297 -124.912
LeftHand  0.289631 7.03443 20.8098
RightShoulder  2.45189 4.1556 25.9772
RightArm  -30.3496 -38.7593 5.96235
RightForeArm  24.1641 72.932 38.3624
RightHand  0.10574 -6.30703 -14.4941
LeftUpLeg  -31.8444 7.56831 16.3188
LeftLeg  49.0369 -4.60402 -5.21607
LeftFoot  -12.375 -0.0599624 -13.0151
LeftToes  -6.27559e-011 -2.10356e-011 8.24929e-012
